{"title":"[MARATHI] Tukaraam 2012 DVDrip","uid":7463376,"size":909590484,"categoryP":"video","categoryS":"movies","magnet":"?xt=urn:btih:512c3ef7aa7aa00639338965fa9bfdc784acae81&amp;dn=%5BMARATHI%5D+Tukaraam+2012+DVDrip&amp;tr=udp%3A%2F%2Ftracker.openbittorrent.com%3A80&amp;tr=udp%3A%2F%2Fopen.demonii.com%3A1337&amp;tr=udp%3A%2F%2Ftracker.coppersurfer.tk%3A6969&amp;tr=udp%3A%2F%2Fexodus.desync.com%3A6969","seeders":1,"leechers":0,"uploader":"SJonam","files":2,"time":1342901338,"description":" &lt;a href=&quot;\nhttp://desibbrg.org/images/66952052392581364616.gif&quot; rel=&quot;nofollow&quot; target=&quot;_NEW&quot;&gt;\nhttp://desibbrg.org/images/66952052392581364616.gif&lt;/a&gt;\n &lt;a href=&quot;\nhttp://desibbrg.org/images/88149303174085807178_thumb.jpg&quot; rel=&quot;nofollow&quot; target=&quot;_NEW&quot;&gt;\nhttp://desibbrg.org/images/88149303174085807178_thumb.jpg&lt;/a&gt;\n &lt;a href=&quot;\nhttp://desibbrg.org/images/68907274736872030689.jpg&quot; rel=&quot;nofollow&quot; target=&quot;_NEW&quot;&gt;\nhttp://desibbrg.org/images/68907274736872030689.jpg&lt;/a&gt;\n &lt;a href=&quot;\nhttp://desibbrg.org/images/38770208102308219617.jpg&quot; rel=&quot;nofollow&quot; target=&quot;_NEW&quot;&gt;\nhttp://desibbrg.org/images/38770208102308219617.jpg&lt;/a&gt;\n &lt;a href=&quot;\nhttp://desibbrg.org/images/45409152291001446207.jpg&quot; rel=&quot;nofollow&quot; target=&quot;_NEW&quot;&gt;\nhttp://desibbrg.org/images/45409152291001446207.jpg&lt;/a&gt;\n &lt;a href=&quot;\nhttp://desibbrg.org/images/82220672005913658988.jpg&quot; rel=&quot;nofollow&quot; target=&quot;_NEW&quot;&gt;\nhttp://desibbrg.org/images/82220672005913658988.jpg&lt;/a&gt;\n\nMedia Info - \nGeneral\nComplete name                    : Tukaram.mpg\nFormat                           : MPEG-PS\nFile size                        : 867 MiB\nDuration                         : 2h 36mn\nOverall bit rate                 : 775 Kbps\nWriting library                  : encoded by TMPGEnc Video Mastering Works 5 Version. 5.0.5.32\n\nVideo\nID                               : 224 (0xE0)\nFormat                           : MPEG Video\nFormat version                   : Version 1\nFormat settings, BVOP            : Yes\nFormat settings, Matrix          : Default\nDuration                         : 2h 36mn\nBit rate mode                    : Variable\nBit rate                         : 700 Kbps\nWidth                            : 352 pixels\nHeight                           : 288 pixels\nDisplay aspect ratio             : 4:3\nFrame rate                       : 25.000 fps\nStandard                         : PAL\nColor space                      : YUV\nBit depth                        : 8 bits\nScan type                        : Progressive\nCompression mode                 : Lossy\nBits/(Pixel*Frame)               : 0.276\nStream size                      : 778 MiB (90%)\nWriting library                  : TMPGEnc Video Mastering Works 5 Version. 5.0.5.32\n\nAudio\nID                               : 192 (0xC0)\nFormat                           : MPEG Audio\nFormat version                   : Version 1\nFormat profile                   : Layer 2\nDuration                         : 2h 36mn\nBit rate mode                    : Constant\nBit rate                         : 64.0 Kbps\nChannel(s)                       : 2 channels\nSampling rate                    : 48.0 KHz\nCompression mode                 : Lossy\nStream size                      : 71.6 MiB (8%)\n\nRipper - Dexter Morgan \n\nSeeding 24x7... Extreme Seeding...\n\n\nEnjoy!\n","torrent":{"xt":"urn:btih:512c3ef7aa7aa00639338965fa9bfdc784acae81","amp;dn":"%5BMARATHI%5D+Tukaraam+2012+DVDrip","amp;tr":["udp%3A%2F%2Ftracker.openbittorrent.com%3A80","udp%3A%2F%2Fopen.demonii.com%3A1337","udp%3A%2F%2Ftracker.coppersurfer.tk%3A6969","udp%3A%2F%2Fexodus.desync.com%3A6969"],"infoHash":"512c3ef7aa7aa00639338965fa9bfdc784acae81","infoHashBuffer":{"type":"Buffer","data":[81,44,62,247,170,122,160,6,57,51,137,101,250,155,253,199,132,172,174,129]},"announce":[],"urlList":[]}}